<?xml version="1.0" encoding="UTF-8" standalone="no"?>
<!-- Created with Inkscape (http://www.inkscape.org/) -->

<svg
   version="1.1"
   id="svg1"
   width="1600"
   height="547"
   viewBox="0 0 1600 547"
   sodipodi:docname="dfa-logo-text.svg"
   inkscape:version="1.3.2 (1:1.3.2+202311252150+091e20ef0f)"
   xmlns:inkscape="http://www.inkscape.org/namespaces/inkscape"
   xmlns:sodipodi="http://sodipodi.sourceforge.net/DTD/sodipodi-0.dtd"
   xmlns="http://www.w3.org/2000/svg"
   xmlns:svg="http://www.w3.org/2000/svg">
  <defs
     id="defs1" />
  <sodipodi:namedview
     id="namedview1"
     pagecolor="#ffffff"
     bordercolor="#999999"
     borderopacity="1"
     inkscape:showpageshadow="2"
     inkscape:pageopacity="0"
     inkscape:pagecheckerboard="0"
     inkscape:deskcolor="#d1d1d1"
     inkscape:zoom="0.17829754"
     inkscape:cx="185.08388"
     inkscape:cy="-168.25807"
     inkscape:window-width="1920"
     inkscape:window-height="1016"
     inkscape:window-x="0"
     inkscape:window-y="0"
     inkscape:window-maximized="1"
     inkscape:current-layer="g1" />
  <g
     inkscape:groupmode="layer"
     inkscape:label="Image"
     id="g1">
    <path
       style="fill:#ffffff;fill-opacity:1"
       d="M 2,274 V 4 H 284 566 V 274 544 H 284 2 Z m 23.5,259.48387 c 2.75,-1.33882 12.402017,-5.93289 21.448926,-10.20904 23.344781,-11.03426 62.597014,-30.88472 90.551074,-45.79309 14.41076,-7.6855 36.2686,-18.9234 44,-22.62199 4.4,-2.10489 10.55565,-5.18443 13.67923,-6.84341 3.12358,-1.65899 6.14612,-3.01634 6.71675,-3.01634 1.7549,0 29.22671,-13.21716 45.60402,-21.94087 7.88119,-4.19808 11.84297,-6.58276 20.27924,-12.20652 2.35358,-1.56894 4.63742,-2.85261 5.07519,-2.85261 0.43778,0 3.31816,-2.50216 6.40083,-5.56034 6.53571,-6.48379 10.76758,-14.12227 13.28112,-23.97228 1.74052,-6.82069 1.73825,-7.11861 -0.0753,-9.88643 C 290.78239,366.01893 285.69582,363 283.0578,363 c -0.55354,0 -1.67534,1.29352 -2.49289,2.87449 -3.13235,6.05728 -35.2154,37.34275 -42.68671,41.62551 -0.95948,0.55 -4.58709,2.62454 -8.06135,4.61008 -3.47427,1.98554 -8.11685,4.64895 -10.31685,5.91867 -20.79172,11.99987 -28.51824,15.17873 -28.48967,11.72125 0.0143,-1.73111 3.72608,-8.42185 8.48967,-15.30325 2.2,-3.17808 4.48995,-6.60063 5.08878,-7.60565 0.59883,-1.00503 1.88427,-2.70634 2.85654,-3.78068 0.97227,-1.07434 3.63232,-4.84166 5.91122,-8.37182 2.2789,-3.53016 6.16846,-9.50575 8.64346,-13.2791 2.475,-3.77334 4.95,-7.61181 5.5,-8.52991 0.55,-0.91811 4.15,-6.42069 8,-12.22796 3.85,-5.80727 7.9,-12.02025 9,-13.80663 1.1,-1.78639 2.45573,-3.9448 3.01274,-4.79649 0.55701,-0.85168 2.33217,-3.79851 3.94481,-6.54851 1.61263,-2.75 3.9694,-6.39248 5.23726,-8.09439 1.26785,-1.70192 2.30519,-3.43245 2.30519,-3.84563 0,-0.41318 0.99355,-2.14656 2.2079,-3.85194 1.21434,-1.70539 2.94759,-4.47485 3.85166,-6.15437 0.90408,-1.67952 3.06303,-5.52867 4.79768,-8.55367 5.05254,-8.81096 13.34206,-27.1161 15.17054,-33.5 4.4327,-15.47616 4.69655,-18.29665 2.35635,-25.18954 -1.86452,-5.49181 -3.72333,-7.23404 -7.76571,-7.27866 -4.7672,-0.0526 -11.19195,7.30854 -26.61842,30.498 -2.61132,3.9254 -13.41145,18.87304 -14.77825,20.45346 -0.72146,0.83421 -4.76411,5.79174 -8.98368,11.01674 -14.33421,17.74975 -21.63322,23.40432 -36.73807,28.46114 -8.84176,2.96005 -24.52426,4.24829 -30.60566,2.5141 -5.39796,-1.5393 -6.16411,-3.30754 -5.53557,-12.77586 1.04454,-15.73509 9.58999,-41.08414 20.9681,-62.19938 1.63005,-3.025 4.05357,-7.525 5.38561,-10 2.28993,-4.25479 3.93953,-7.02068 12.28752,-20.6024 4.75246,-7.732 4.76679,-7.75408 11.29787,-17.3976 8.99386,-13.27998 15.49367,-22.26053 18.21007,-25.16019 C 225.87857,182.37671 227,180.90199 227,180.56266 227,178.7878 250.17077,152.62055 262.91773,140 285.17248,117.96594 320.93944,87.837618 343.33905,72.257057 376.64671,49.089138 406.40097,35.482252 434.5,30.568342 c 25.3107,-4.426292 45.0402,-4.451355 61.86598,-0.07859 11.37079,2.955097 12.20796,3.341471 19.73753,9.109284 4.19036,3.209908 6.18004,5.630094 7.88962,9.596687 2.21416,5.137346 2.26032,5.85502 1.46657,22.804277 -1.39759,29.84307 -1.22451,36.87156 1.0403,42.24625 1.1,2.61044 2.4721,4.74794 3.04911,4.75 1.18917,0.004 3.42009,-5.60213 3.97547,-9.99048 0.20363,-1.60896 1.30967,-5.96695 2.45788,-9.684422 1.14822,-3.717473 2.48719,-9.473061 2.97549,-12.790195 0.48831,-3.317134 1.6236,-10.205883 2.52286,-15.308331 1.59346,-9.041415 1.57969,-9.498852 -0.5418,-18 -2.8222,-11.309016 -6.83282,-18.899236 -13.51928,-25.585706 -4.65411,-4.654104 -6.59496,-5.787266 -14.15664,-8.265333 C 504.54145,16.513585 504.37937,16.5 479,16.5 c -22.04361,0 -27.4654,0.320161 -40,2.362031 -14.94169,2.433981 -30.60827,6.421095 -42.02476,10.695219 C 393.38662,30.900762 389.94964,32 389.33751,32 387.33378,32 360.31153,44.908723 345.5,52.941497 338.3496,56.819392 323.92539,65.757547 321.98743,67.511377 321.08273,68.33012 320.04149,69 319.67357,69 c -0.67995,0 -8.71911,5.51144 -14.17357,9.717036 -1.65,1.272213 -3.45177,2.64383 -4.00394,3.048039 C 276.72846,99.895991 248.14105,126.05884 227,149.94296 c -3.575,4.03886 -7.50372,8.33492 -8.73048,9.54679 -1.22676,1.21188 -6.30396,7.33495 -11.28267,13.60683 C 202.00815,179.36846 197.0358,185.625 195.93717,187 191.17639,192.95843 188,197.31961 188,197.89772 c 0,0.3425 -1.0125,1.76698 -2.25,3.16552 -1.2375,1.39855 -2.7,3.23254 -3.25,4.07554 -0.55,0.843 -3.1913,4.86914 -5.86956,8.94698 -2.67826,4.07783 -6.60819,10.11424 -8.73317,13.41424 -2.12498,3.3 -4.32753,6.675 -4.89455,7.5 -3.38387,4.92342 -16.56474,31.58886 -20.26651,41 -6.24367,15.8735 -7.22788,21.86137 -7.23221,44 l -0.004,20.5 3,6 c 3.85374,7.70748 8.77361,10.84635 20.5,13.07895 15.36936,2.92619 27.39896,1.69171 41.33861,-4.24218 8.5359,-3.63359 9.66139,-3.89388 9.66139,-2.23434 0,1.58077 -19.94554,30.79944 -24.96671,36.57429 -1.11831,1.28617 -2.03329,2.72997 -2.03329,3.20844 0,0.47847 -0.69799,1.44923 -1.5511,2.15725 -0.8531,0.70801 -5.06113,5.82561 -9.35118,11.37244 -12.25225,15.84161 -17.91093,21.19954 -54.0993,51.22395 -8.52587,7.07366 -17.75087,14.62296 -20.500001,16.77622 -2.74913,2.15327 -5.543653,4.57816 -6.21005,5.38866 -0.666398,0.8105 -2.069067,1.97374 -3.117043,2.58498 -1.986644,1.15872 -14.275218,10.87089 -22.356917,17.6696 C 63.237334,502.22622 60.649834,504 60.064409,504 59.478984,504 59,504.36651 59,504.81446 c 0,0.78227 -15.151667,12.45323 -19.272452,14.8451 -1.098751,0.63776 -2.274438,1.57154 -2.612638,2.07506 -0.803647,1.19648 -12.765165,9.25418 -13.810041,9.30293 -0.442678,0.0207 -2.604869,1.6073 -4.804869,3.52589 -3.861159,3.36727 -3.895869,3.45132 -1,2.4215 1.65,-0.58677 5.25,-2.16225 8,-3.50107 z m 709.48353,3.06155 c -16.01869,-2.912 -30.3747,-15.85023 -36.17349,-32.60106 -1.85177,-5.34918 -2.23723,-8.65364 -2.26818,-19.44436 -0.0426,-14.87101 1.83107,-22.51926 7.77695,-31.74454 C 707.91333,447.17841 714.1426,440 715.38773,440 c 0.41014,0 2.17819,-1.05885 3.92899,-2.35301 1.7508,-1.29415 7.09129,-3.60067 11.86774,-5.12559 7.99155,-2.55136 9.62719,-2.73542 20.5,-2.30685 10.31354,0.40653 12.8676,0.87793 20.09162,3.70833 9.94283,3.89565 16.96005,10.32555 21.36534,19.57712 4.35709,9.15034 4.19441,9.50187 -4.39142,9.48983 l -7.25,-0.0102 -1.77365,-3.73983 C 776.78613,453.04024 774.93434,450 774.09844,450 c -0.43583,0 -1.83583,-0.90495 -3.11112,-2.011 -3.37243,-2.92489 -14.25826,-5.989 -21.27705,-5.989 -16.85238,0 -29.20078,7.90617 -35.67996,22.8444 -3.11236,7.17578 -3.17785,7.63498 -2.85254,20 0.2818,10.71119 0.67782,13.33743 2.57759,17.09343 1.23455,2.44081 2.24464,4.9375 2.24464,5.54821 0,2.35419 10.75718,12.14255 16.5,15.01396 5.57576,2.78788 6.77778,3 17,3 10.2331,0 11.4149,-0.20916 16.95106,-3 10.9033,-5.49648 17.06424,-14.01264 18.26688,-25.25 L 785.27981,492 H 768.1399 751 v -6 -6 h 23 23 v 28 28 h -4.38337 c -4.61521,0 -5.5683,-1.13713 -5.60298,-6.6849 -0.008,-1.2017 -0.48004,-3.41159 -1.05006,-4.91087 l -1.03642,-2.72598 -3.21358,3.07398 c -5.69872,5.45116 -15.15226,10.23673 -23.30226,11.79609 -8.71901,1.66822 -14.23885,1.66754 -23.4278,-0.003 z m 93.33201,0.0275 c -8.93802,-2.16707 -13.60482,-6.3203 -15.87443,-14.12749 -2.26638,-7.79607 -0.33986,-17.51211 4.30601,-21.71657 3.67322,-3.32422 14.39915,-6.86558 23.67666,-7.81728 15.49081,-1.58907 21.76436,-3.35352 22.95493,-6.4561 1.27493,-3.3224 0.59859,-9.21462 -1.34069,-11.68001 -5.01759,-6.37883 -27.75119,-6.21493 -31.14381,0.22454 -0.43465,0.825 -1.38222,2.85 -2.10571,4.5 -1.25089,2.85276 -1.60927,3 -7.30197,3 H 815.5 l 0.0728,-4 c 0.0922,-5.06822 4.15685,-11.65603 9.18339,-14.88406 11.14318,-7.15613 37.22783,-6.54896 46.29137,1.07751 6.22603,5.23886 6.42086,6.24487 6.77544,34.98416 l 0.32298,26.17762 2.9552,1.03019 c 1.62536,0.5666 3.64457,0.76565 4.48713,0.44233 1.27047,-0.48752 1.479,0.24504 1.22182,4.2922 L 886.5,536.5 l -4.73086,0.91402 c -8.30942,1.60542 -14.50993,-1.62322 -17.11907,-8.91402 -0.20219,-0.56499 -1.1827,-0.31047 -2.25397,0.58509 -4.26569,3.566 -9.94418,6.27923 -15.74968,7.52535 -7.49808,1.60943 -11.57245,1.60109 -18.33088,-0.0375 z m 20.43784,-10.48281 c 5.57762,-1.07895 12.2082,-5.7539 13.89843,-9.79919 1.76036,-4.21315 1.83471,-17.29558 0.0982,-17.2789 -0.6875,0.007 -7.97819,1.35623 -16.20153,2.99916 -13.51717,2.70059 -15.26796,3.29386 -18.25,6.18416 -2.63763,2.55649 -3.29847,3.99027 -3.29847,7.15645 0,4.95391 3.81558,10.33592 7.75025,10.93199 4.84821,0.73447 11.62944,0.6524 16.00313,-0.19367 z m 171.52462,10.48755 c -20.0721,-3.9564 -30.87553,-26.70128 -24.39931,-51.36868 4.60331,-17.53367 16.55721,-26.57293 35.12131,-26.55799 20.2249,0.0163 31.4697,10.42348 34.9524,32.34902 0.5679,3.575 1.0359,7.5125 1.04,8.75 L 1067,502 h -30.1113 -30.1113 l 0.6651,3.75 c 1.216,6.85541 5.5558,14.06042 10.4032,17.27117 4.1029,2.71766 5.2411,2.97883 12.9814,2.97883 7.6903,0 8.8204,-0.25495 12.0785,-2.72477 4.6115,-3.49583 6.9228,-6.20667 7.6949,-9.02523 0.5639,-2.05874 1.2079,-2.25 7.5753,-2.25 7.8401,0 7.6619,-0.40875 3.7134,8.51756 -1.9017,4.29918 -9.0724,11.50422 -13.8892,13.95584 -2.8841,1.46792 -14.2912,3.57269 -18.5819,3.42863 -1.605,-0.0539 -5.718,-0.64986 -9.1401,-1.32438 z M 1051.6325,487.25 c -0.801,-5.9513 -4.9115,-11.94108 -9.9978,-14.56881 -7.8982,-4.08044 -20.0179,-3.02822 -25.9446,2.25248 -3.179,2.83252 -7.6901,11.58055 -7.6901,14.91282 0,2.13982 0.1407,2.15351 22.1359,2.15351 h 22.1359 z m 49.7607,49.34848 c -7.7728,-1.53447 -14.6668,-6.35457 -19.5881,-13.69545 -3.7962,-5.66248 -4.1398,-6.73063 -5.7874,-17.98807 -1.3314,-9.09751 0.7672,-22.91173 4.5312,-29.82755 4.984,-9.15721 14.5518,-14.97064 27.456,-16.68245 5.699,-0.75599 18.9516,1.85613 23.4951,4.63094 11.8378,7.22959 17.4782,22.07348 15.9061,41.8606 -1.3772,17.33533 -11.6957,29.34693 -27.488,31.99841 -7.8895,1.32463 -10.5273,1.28242 -18.5249,-0.29643 z m 22.2457,-13.45184 c 7.0499,-5.10697 10.3611,-13.09216 10.3611,-24.98689 0,-14.02713 -4.9169,-23.58049 -13.6716,-26.56353 -12.3997,-4.22499 -23.2161,0.09 -28.5857,11.40378 -3.1849,6.71066 -3.1468,22.30361 0.074,30.12738 3.8853,9.43898 9.1567,12.77396 20.2836,12.83258 6.8042,0.0358 8.0124,-0.25872 11.5389,-2.81332 z M 1236,536.5661 c -17.267,-3.2134 -30.9248,-15.63952 -36.6784,-33.37068 -3.9012,-12.02261 -3.895,-25.8746 0.017,-37.80428 1.4625,-4.45988 3.7846,-9.76736 5.1602,-11.79441 1.3756,-2.02705 2.5011,-3.92609 2.5011,-4.22009 0,-1.06588 8.5974,-9.08883 12.5,-11.66482 8.11,-5.35316 15.6787,-7.13354 30.5,-7.1745 14.7024,-0.0406 21.8748,1.63781 30.5,7.1374 7.3624,4.69441 13.6016,13.58062 15.8505,22.57528 l 0.6876,2.75 h -7.3182 -7.3181 l -1.3312,-3.6813 c -0.7321,-2.02472 -3.5984,-5.85505 -6.3693,-8.51185 -6.093,-5.84184 -14.3879,-8.80685 -24.6382,-8.80685 -7.6273,0 -18.6692,3.05269 -21.8877,6.05118 -1.1505,1.07185 -2.4853,1.94882 -2.9662,1.94882 -1.4099,0 -6.7321,7.12501 -9.706,12.99375 -3.4815,6.87031 -4.8379,17.17521 -3.6412,27.66313 1.6637,14.58194 8.7588,25.3155 20.7563,31.40065 6.5209,3.30738 7.2207,3.44228 17.8345,3.43756 10.4589,-0.005 11.3667,-0.17305 17.0472,-3.16236 8.4947,-4.47028 13.0841,-9.60321 16.0163,-17.91314 1.3428,-3.80577 2.451,-8.14646 2.4626,-9.64598 L 1286,492.04723 1268.75,491.77361 1251.5,491.5 v -5.5 -5.5 l 23.25,-0.26843 23.25,-0.26843 V 507.98157 536 h -4.393 c -4.4516,0 -5.5997,-0.98843 -5.6126,-4.83179 -0,-0.91751 -0.4762,-3.36297 -1.0514,-5.43434 l -1.0459,-3.76614 -4.6986,3.91252 c -12.3358,10.27219 -27.7893,13.9257 -45.1985,10.68585 z m 92.8024,-0.019 c -12.9814,-2.84328 -19.9568,-15.95639 -15.3536,-28.86333 3.3767,-9.46783 10.6317,-12.77107 34.5512,-15.73121 13.3939,-1.65755 17.0052,-3.91764 16.9963,-10.63685 -0.011,-7.89888 -7.0818,-11.89754 -19.6954,-11.13727 -9.1463,0.55128 -12.2839,2.23904 -15.0919,8.11818 l -2.2911,4.79665 -6.2089,-0.29665 -6.209,-0.29665 0.2625,-3.31442 c 0.3508,-4.42762 3.3094,-9.96284 7.4503,-13.93832 8.5458,-8.20451 35.572,-9.17331 47.0174,-1.68543 7.2518,4.74423 7.7678,7.07385 7.7851,35.14833 0.01,13.63441 0.3459,25.28497 0.75,25.89014 1.3218,1.9796 5.2677,3.52399 7.3308,2.86921 1.8629,-0.59127 1.9964,-0.26407 1.7122,4.1946 L 1387.5,536.5 l -4.6694,0.90254 c -3.2868,0.6353 -6.0523,0.51531 -9.3402,-0.40522 -3.8478,-1.07733 -4.958,-1.94112 -6.3009,-4.90253 -0.8966,-1.97714 -1.7254,-3.75167 -1.8418,-3.94341 -0.1164,-0.19174 -2.7437,1.33205 -5.8384,3.38621 -8.8059,5.84506 -19.1715,7.53611 -30.7069,5.00954 z m 20.9763,-10.59309 c 5.7682,-1.23706 11.8935,-5.92523 13.8455,-10.59713 1.3531,-3.23826 1.9352,-15.46422 0.7908,-16.60859 -0.3218,-0.32176 -1.7843,-0.17418 -3.25,0.32795 -1.4658,0.50212 -8.3698,1.97905 -15.3423,3.28206 -9.4429,1.76468 -13.4424,2.97793 -15.6762,4.75539 -5.9424,4.72841 -6.4902,11.29619 -1.3479,16.16072 3.8664,3.6576 11.7342,4.66249 20.9801,2.6796 z M 1521,536.58648 c -16.5467,-3.63598 -26.135,-17.57418 -26.0764,-37.90633 0.055,-19.25385 8.4051,-33.08814 22.8455,-37.85204 8.8562,-2.92168 14.2868,-3.23783 22.9008,-1.33322 12.6551,2.79814 18.8325,8.54294 23.4499,21.80768 1.9463,5.59148 2.8577,10.1843 2.8668,14.44743 L 1567,502 h -29.5 -29.5 v 2.76489 c 0,1.52069 1.3473,5.52649 2.994,8.90179 2.2551,4.62242 4.1483,6.90148 7.6714,9.23511 4.2368,2.80629 5.4198,3.09821 12.5557,3.09821 4.9847,0 8.925,-0.54129 10.7282,-1.47378 3.2773,-1.69475 10.0507,-9.2469 10.0507,-11.20622 0,-0.95795 1.7828,-1.32 6.5,-1.32 7.5844,0 7.7636,0.36569 4.1018,8.37107 -4.0299,8.81031 -11.3315,14.23759 -21.8543,16.24441 -8.497,1.62045 -12.2664,1.61492 -19.7475,-0.029 z M 1552.9944,490.25 c -0.024,-7.42182 -6.9918,-17.03381 -13.8348,-19.08404 -4.9364,-1.47898 -11.8821,-1.49259 -16.2604,-0.0318 -6.2003,2.06865 -12.4007,9.84839 -14.4383,18.11589 l -0.6777,2.75 h 22.6084 c 20.8673,0 22.608,-0.13477 22.6028,-1.75 z M 899,483 v -52 h 6.5 6.5 v 52 52 h -6.5 -6.5 z m 33,15 v -37 h 7 7 v 37 37 h -7 -7 z m 33.241,-14.75 0.259,-51.75 6.75,-0.29569 6.75,-0.29569 V 482.95431 535 h -7.009 -7.009 z M 1400,483 v -52 h 6 6 v 52 52 h -6 -6 z m 33,15 v -37 h 6.5 6.5 v 37 37 h -6.5 -6.5 z m 33.241,-14.75 0.259,-51.75 h 6.5 6.5 l 0.259,51.75 0.259,51.75 H 1473 1465.982 Z M 1582,498.04772 V 461 h 6.5123 6.5123 l -0.2623,36.75 -0.2623,36.75 -6.25,0.29772 -6.25,0.29771 z M 932.41714,445.64467 c -0.28605,-0.74543 -0.38442,-4.23293 -0.21861,-7.75 L 932.5,431.5 l 6.75,-0.29569 6.75,-0.29569 V 438.95431 447 h -6.53138 c -4.57333,0 -6.68731,-0.40632 -7.05148,-1.35533 z m 500.99996,0 c -0.286,-0.74543 -0.3844,-4.23293 -0.2186,-7.75 L 1433.5,431.5 l 6.25,-0.29772 6.25,-0.29771 V 438.95228 447 h -6.0314 c -4.1526,0 -6.1934,-0.42219 -6.5515,-1.35533 z M 1582,439 v -8.09543 l 6.25,0.29771 6.25,0.29772 v 7.5 7.5 l -6.25,0.29772 -6.25,0.29771 z M 716.44363,397.14944 c -5.16648,-0.93289 -13.01948,-5.41289 -17.16205,-9.79065 -1.77013,-1.87063 -4.58263,-6.19741 -6.25,-9.61508 C 690.13743,371.81147 690,370.94922 690,358.72319 c 0,-12.19977 0.14536,-13.11749 3.0677,-19.36799 6.80792,-14.56124 21.04948,-22.47381 37.90622,-21.06061 7.47598,0.62676 15.63275,3.54089 20.67412,7.38612 6.42439,4.90012 11.86653,17.24646 13.00593,29.50598 L 765.2872,362 H 734.6436 C 715.9388,362 704,362.37043 704,362.95078 c 0,0.52293 0.50885,3.33543 1.13078,6.25 1.26977,5.95059 4.1899,9.99878 10.1343,14.04922 3.57232,2.43413 4.95416,2.75 12.03054,2.75 6.89807,0 8.56083,-0.35818 12.12224,-2.6113 2.27017,-1.43621 5.58331,-4.81121 7.36254,-7.5 L 750.01537,371 h 5.9333 c 3.26331,0 6.20313,0.4366 6.53292,0.97022 0.3298,0.53362 -0.37071,3.34612 -1.55669,6.25 -2.55728,6.26157 -10.39278,14.21347 -16.79779,17.04733 -4.80811,2.12732 -20.43938,3.18992 -27.68348,1.88189 z M 749,348.17144 c 0,-2.59522 -0.98309,-5.31274 -3.05174,-8.43584 -7.58707,-11.45438 -26.13988,-12.90719 -35.30321,-2.76447 -4.35196,4.81709 -5.21647,6.57712 -5.54014,11.27887 L 704.84676,352 H 726.92338 749 Z m 189.97946,48.99436 c -5.31307,-0.83073 -12.97073,-5.06795 -15.90843,-8.80262 C 920.97376,385.69693 918,377.16762 918,373.8185 918,372.22214 918.91619,372 925.5,372 c 6.47477,0 7.50051,0.23922 7.50374,1.75 0.006,2.84011 3.72994,8.11705 7.23712,10.2554 2.61661,1.59537 5.04328,1.98786 12.30897,1.99086 8.12631,0.003 9.47208,-0.27005 13.1875,-2.67917 4.42693,-2.87048 5.75338,-5.80643 4.72948,-10.4682 -0.84129,-3.83039 -6.11162,-6.48239 -16.4795,-8.29238 -15.86798,-2.77018 -29.2025,-8.67524 -32.40398,-14.34979 -1.57941,-2.79947 -1.07914,-15.39244 0.74315,-18.70672 4.04539,-7.35756 13.6652,-12.16782 26.39679,-13.19938 7.17193,-0.58109 18.77533,1.07909 19.86502,2.84224 0.29136,0.47142 1.31186,0.85714 2.26778,0.85714 2.10399,0 8.31768,6.42486 9.95861,10.29705 0.65193,1.53838 1.18532,4.35088 1.18532,6.25 V 342 l -6.75,-0.0236 -6.75,-0.0236 -2.07458,-4.72643 c -1.86581,-4.2508 -2.54652,-4.85222 -6.76435,-5.97643 -15.01929,-4.0032 -28.66871,3.39314 -23.63143,12.80539 1.53819,2.87412 5.2699,4.40522 17.97036,7.37314 17.59719,4.11222 18.16263,4.30059 23.40831,7.79852 5.94664,3.96533 8.59169,8.59539 8.59169,15.03947 0,8.89329 -4.58539,15.42651 -14.09146,20.0774 -4.8009,2.34886 -7.0605,2.7641 -16.97336,3.11914 -6.28935,0.22526 -13.46942,0.0915 -15.95572,-0.29726 z m 73.32904,-0.26941 c -1.7553,-0.50778 -4.1178,-2.22416 -5.25,-3.81418 C 1005.092,390.32043 1005,388.86887 1005,360.59563 V 331 h -6.05226 -6.05226 l 0.30226,-5.25 0.30226,-5.25 5.80756,-0.30162 5.80754,-0.30162 -0.1989,-9.69838 -0.1989,-9.69838 6.6414,-0.29569 6.6413,-0.29569 V 309.95431 320 h 7 7 v 5.5 5.5 h -7.0459 -7.0459 l 0.2959,26.91829 c 0.1627,14.80506 0.6709,27.29256 1.1292,27.75 0.4584,0.45744 3.4959,0.83171 6.75,0.83171 H 1032 v 5.125 c 0,4.94 -0.1128,5.14756 -3.125,5.75 -4.3412,0.86823 -12.7505,0.62528 -16.5665,-0.47861 z m 105.4569,0.0711 c -6.2353,-1.04998 -15.2485,-7.16111 -19.6346,-13.31258 -2.5545,-3.58276 -3.929,-7.10005 -5.2755,-13.5 -2.2413,-10.65283 -2.2717,-13.22336 -0.2709,-22.91002 2.0475,-9.91236 5.2203,-15.73692 11.4879,-21.08931 6.1185,-5.22508 14.0325,-7.65557 24.9277,-7.65557 14.6504,0 24.1878,4.49962 31.202,14.72073 4.3336,6.31486 6.2022,13.97526 6.1662,25.27927 -0.093,29.19493 -18.2635,43.57645 -48.6028,38.46748 z m 23.3948,-13.95023 c 17.0158,-11.27078 13.7614,-46.6004 -4.7762,-51.85135 -8.6388,-2.44702 -17.8385,-0.41051 -23.1501,5.12465 -6.703,6.98522 -9.1849,23.20852 -5.2592,34.3777 2.206,6.27646 3.7584,8.33175 9.4253,12.47815 3.4876,2.55177 4.7123,2.8536 11.5786,2.8536 6.8487,0 8.1652,-0.32236 12.1816,-2.98275 z m 145.1662,14.00487 c -9.165,-1.95822 -17.378,-8.77291 -22.3292,-18.52762 -3.3355,-6.57141 -3.3881,-6.87734 -3.4101,-19.83443 -0.022,-12.88569 0.048,-13.31282 3.3784,-20.48633 C 1270.1351,324.88293 1280.8528,318.5 1297,318.5 c 12.6757,0 19.9299,2.55779 26.9435,9.5 8.1059,8.02348 11.4249,16.89361 11.4122,30.5 -0.01,8.44505 -0.4249,11.06781 -2.6818,16.86718 -3.9225,10.0793 -8.4604,14.90921 -18.5468,19.74054 -4.9724,2.38177 -20.5823,3.45669 -27.8007,1.9144 z m 24.0079,-14.45508 c 2.1088,-1.61313 5.1421,-5.21313 6.7406,-8 2.7223,-4.74618 2.9069,-5.76268 2.9157,-16.05269 0.01,-9.92899 -0.2473,-11.49294 -2.6591,-16.25982 -3.1688,-6.26308 -7.3738,-9.73279 -13.7373,-11.33512 -9.0037,-2.26716 -18.9969,1.10684 -23.8989,8.06893 -3.4036,4.83404 -3.7556,6.19474 -4.4002,17.01166 -0.6851,11.49783 1.3144,18.37422 6.9946,24.05439 5.5141,5.51409 6.7834,5.95894 16.2103,5.68126 7.1199,-0.20973 8.4218,-0.55831 11.8343,-3.16861 z m 212.6112,14.13752 c -12.7655,-3.63275 -18.0079,-14.30575 -14.5446,-29.61108 0.7727,-3.41496 4.3236,-6.89673 9.9583,-9.76467 3.4834,-1.77295 9.2878,-3.13281 20.5,-4.8028 17.3412,-2.58284 20.5254,-3.50759 22.08,-6.4124 5.6671,-10.58901 -8.7259,-18.89756 -25.8779,-14.93841 -5.2367,1.20879 -9.3749,5.00241 -10.2066,9.35694 -0.326,1.70662 -1.3348,2.00682 -7.599,2.26134 l -7.2231,0.29348 0.6189,-3.29348 c 1.807,-9.61672 6.8332,-15.63205 15.9148,-19.04688 4.9635,-1.86634 7.8957,-2.22476 17.9337,-2.19211 10.1552,0.033 12.8455,0.38927 17.5,2.31732 3.025,1.25306 6.5705,3.25702 7.8789,4.45324 5.0574,4.62388 5.5289,7.34209 5.9283,34.17495 0.2256,15.15396 0.7789,25.4923 1.4049,26.25 0.568,0.6875 2.5527,1.25 4.4103,1.25 H 1585 v 4.93873 4.93872 l -4.5,0.67482 c -7.3965,1.10917 -13.0345,-0.21037 -16.0105,-3.74715 -1.4278,-1.69684 -2.3612,-3.69715 -2.0741,-4.44514 0.7341,-1.91325 0.2626,-1.74988 -4.7882,1.65883 -2.4601,1.66035 -6.1665,3.72641 -8.2364,4.59126 -5.0649,2.11625 -20.5961,2.75903 -26.4453,1.09449 z m 21.108,-10.62595 c 6.07,-0.99441 11.1276,-3.8688 14.9697,-8.5078 2.078,-2.50892 2.5351,-4.26692 2.839,-10.91862 l 0.3621,-7.92822 -2.8621,0.60789 c -1.5742,0.33435 -7.8122,1.51669 -13.8622,2.62744 -6.05,1.11074 -12.0115,2.22327 -13.2478,2.47227 -9.365,1.88627 -13.6249,11.5359 -7.9864,18.09107 3.4439,4.00379 9.9345,5.17018 19.7877,3.55597 z M 810.30015,393.75 c 0.28277,-0.6875 2.37974,-5.975 4.65994,-11.75 2.28019,-5.775 5.0014,-12.525 6.04712,-15 3.28735,-7.78046 7.12935,-17.3468 8.63475,-21.5 0.79742,-2.2 2.3292,-5.9076 3.40395,-8.2391 1.07475,-2.33151 1.95409,-4.68171 1.95409,-5.22267 0,-0.54096 1.10563,-3.35836 2.45695,-6.26089 1.35132,-2.90254 3.11561,-7.07734 3.92064,-9.27734 4.89795,-13.38517 6.51982,-17.44952 8.49401,-21.28575 l 2.20552,-4.28574 9.61141,0.28574 9.61142,0.28575 1.7603,5 c 3.53203,10.03242 6.6673,18.25014 7.43975,19.5 0.43505,0.70393 1.80251,4.0294 3.03879,7.38994 1.23628,3.36053 3.68577,9.71006 5.44332,14.11006 1.75755,4.4 4.23255,10.7 5.5,14 1.26745,3.3 3.73231,9.6 5.47745,14 1.74515,4.4 3.63689,9.35 4.20388,11 0.56698,1.65 2.04347,5.25 3.28108,8 1.23761,2.75 2.55247,6.2375 2.9219,7.75 l 0.67168,2.75 h -8.40653 -8.40653 l -2.61252,-6.5 c -5.75514,-14.3189 -7.56105,-19.12157 -8.18558,-21.76883 l -0.65321,-2.76883 -22.104,0.26883 -22.104,0.26883 -1.91697,5 c -1.05434,2.75 -2.91602,7.475 -4.13707,10.5 -1.22105,3.025 -2.99792,7.6375 -3.9486,10.25 l -1.72851,4.75 h -8.52428 c -6.42696,0 -8.39778,-0.30755 -8.01015,-1.25 z m 66.11856,-45.5 c -1.6606,-3.87235 -3.72135,-9.37372 -7.3981,-19.75 -1.16933,-3.3 -2.85511,-7.575 -3.74618,-9.5 -0.89106,-1.925 -2.15386,-5.29781 -2.80621,-7.49513 l -1.1861,-3.99513 -2.64106,5.21189 C 857.18848,315.58816 856,318.38514 856,318.93712 c 0,0.55199 -1.125,3.46311 -2.5,6.46917 -1.375,3.00605 -2.5,5.96232 -2.5,6.56947 0,0.60715 -0.86704,2.80346 -1.92676,4.88067 -1.05971,2.07722 -2.82566,6.33429 -3.92431,9.46017 L 843.15137,352 h 17.43774 17.43773 z M 1044,357.5 V 320 h 6 6 v 6.60888 6.60889 l 4.0033,-4.85889 c 5.0793,-6.16481 12.7931,-10.30788 19.2467,-10.33726 L 1084,318 v 7 7 l -5.75,0.009 c -4.5334,0.007 -6.8436,0.63657 -10.9183,2.97354 -4.4839,2.57171 -5.4438,3.70083 -7.25,8.52813 -1.887,5.04352 -2.0817,7.71189 -2.0817,28.52646 V 395 h -7 -7 z m 136,0 V 320 h 6.5 6.5 v 5.61765 5.61764 l 4.1271,-4.12705 c 6.6243,-6.62436 11.6985,-8.5129 22.8729,-8.5129 7.6375,0 10.3829,0.41954 14.0031,2.13991 5.1983,2.47026 9.4086,6.54451 10.9333,10.57985 0.6665,1.76412 1.0636,14.17761 1.0636,33.25 V 395 h -6.5 -6.5 v -26.84272 c 0,-26.10305 -0.063,-26.96288 -2.3061,-31.20364 -1.8886,-3.57142 -3.2012,-4.68816 -7.25,-6.1685 -8.7622,-3.20362 -19.5573,-0.12436 -24.6032,7.01795 -3.8492,5.44829 -4.8407,12.90032 -4.8407,36.38057 V 395 h -7 -7 z m 168.2378,0.25 0.2622,-37.25 h 6.5 6.5 l 0.5,4.34278 0.5,4.34277 2.5,-2.69176 c 9.8171,-10.57016 30.8691,-11.24604 40.1529,-1.28912 l 3.6529,3.91776 3.0726,-3.0036 c 5.518,-5.39402 11.5083,-7.48772 21.6216,-7.55709 7.4195,-0.0509 9.9229,0.35542 14.2556,2.31382 4.9499,2.23737 5.8639,3.21839 9.4322,10.12444 0.9515,1.84139 1.3744,10.60086 1.6053,33.25 l 0.3136,30.75 H 1451.5533 1444 v -28.04966 c 0,-31.06677 -0.2455,-32.46141 -6.2669,-35.60363 -7.8381,-4.0902 -18.7051,-1.12393 -23.7422,6.4807 L 1411,342.34289 V 368.67144 395 h -7.5 -7.5 l -0.1,-27.75 c -0.055,-15.2625 -0.4114,-28.86994 -0.7924,-30.23876 -0.8735,-3.138 -6.0089,-6.64978 -10.9435,-7.48347 -2.6781,-0.45246 -5.4384,-0.023 -9.4147,1.46469 -4.5454,1.70063 -6.2137,2.99257 -8.6877,6.72763 l -3.062,4.6228 V 368.67144 395 h -7.5122 -7.5121 z m 129,0 0.2622,-37.25 7.25,-0.29381 7.25,-0.29381 V 357.45619 395 h -7.5122 -7.5121 z M 1477,299 v -8 h 7.5 7.5 v 8 8 h -7.5 -7.5 z M 722.5,257.14629 c -9.88125,-1.81707 -19.70853,-11.57584 -23.28904,-23.12667 -2.36297,-7.62304 -2.32865,-24.52205 0.0655,-32.26466 4.03329,-13.04333 16.80755,-22.7988 30.89622,-23.59488 8.38405,-0.47374 18.49992,2.72498 22.92219,7.24819 L 756,188.37968 V 169.68984 151 h 7 7 v 52 52 h -6 -6 l -0.0317,-4.75 -0.0317,-4.75 -1.98234,2.65475 c -1.09029,1.46012 -4.15244,4.0473 -6.80477,5.7493 -4.24832,2.72614 -5.88358,3.14712 -13.73598,3.53617 -4.90245,0.2429 -10.71355,0.11063 -12.91355,-0.29393 z m 21.51546,-13.43321 c 8.05435,-4.81552 11.9608,-13.05023 11.9608,-25.21308 0,-20.43514 -13.12396,-32.60329 -29.00498,-26.89256 -14.38909,5.17425 -20.50384,26.10392 -12.27349,42.00992 6.20234,11.98664 18.86293,16.3464 29.31767,10.09572 z M 1004,257.13012 c -5.59143,-0.92113 -11.68216,-4.05908 -15.11745,-7.78854 C 986.15429,246.3797 983,238.32595 983,234.32186 983,232.11822 983.34949,232 989.86414,232 h 6.86414 l 1.73853,4.55227 c 3.24909,8.50757 14.34219,12.43451 25.61979,9.06931 8.9701,-2.67669 11.7758,-6.1495 10.3538,-12.8156 -0.6753,-3.16539 -8.9082,-7.79944 -13.8867,-7.81636 -5.9777,-0.0203 -25.12169,-6.5482 -29.48363,-10.05355 -4.68597,-3.76575 -5.51648,-5.96137 -5.4605,-14.43607 0.0439,-6.64032 1.14511,-9.31687 5.80947,-14.1196 10.62416,-10.9393 39.80256,-10.91157 49.33076,0.0469 3.0424,3.49898 3.9131,5.511 4.6837,10.82271 l 0.689,4.75 h -6.9254 -6.9254 l -1.634,-4.25 c -1.8881,-4.91062 -4.6918,-6.61058 -12.2756,-7.44283 -7.8108,-0.85716 -15.6119,1.89635 -17.6841,6.24192 -2.01655,4.22872 -0.80353,8.37838 3.1005,10.60682 1.4968,0.85437 9.631,3.27675 18.0759,5.38306 16.3964,4.08954 21.4542,6.63148 25.0895,12.60922 6.0987,10.02854 1.298,22.6721 -10.9575,28.85867 -5.3438,2.69753 -7.2426,3.08886 -16.7566,3.45343 -5.9014,0.22613 -12.7548,0.0776 -15.2298,-0.33017 z m 114.1394,-0.13864 c -5.0751,-1.0765 -13.0843,-5.94888 -16.5508,-10.06856 -1.3291,-1.57953 -3.6927,-5.47086 -5.2526,-8.6474 -2.7046,-5.50794 -2.836,-6.42415 -2.836,-19.77552 0,-13.93224 0.016,-14.03146 3.3597,-20.5 4.5129,-8.7309 8.3886,-12.66359 16.1403,-16.37748 5.986,-2.86796 7.2907,-3.10871 16.5,-3.04461 8.6214,0.06 10.7582,0.42948 15.5,2.68006 7.2257,3.42954 11.5612,8.15351 14.0069,15.26195 3.2323,9.39491 3.1182,9.62138 -4.6713,9.27577 -6.422,-0.28493 -6.704,-0.40668 -7.75,-3.3461 -3.7864,-10.63938 -14.5179,-15.13609 -25.8154,-10.81708 -5.7278,2.18975 -9.347,6.56532 -11.7641,14.22283 -3.4251,10.85086 -2.014,25.1027 3.2131,32.44996 4.3411,6.10196 12.5779,9.40209 20.5011,8.21393 5.8359,-0.87514 13.7772,-8.324 14.8242,-13.90484 L 1148.2226,229 h 6.8887 c 8.0723,0 8.1102,0.08 4.6758,9.85782 -1.7394,4.95216 -3.3445,7.36085 -7.2601,10.89448 -2.7648,2.49516 -6.5066,5.15982 -8.315,5.92146 -4.1164,1.73374 -20.2639,2.54983 -26.0726,1.31772 z m 69.0593,0.009 c -5.1118,-1.08569 -11.1918,-5.6437 -14.3907,-10.78839 -3.2576,-5.23908 -3.2328,-15.05088 0.053,-20.81075 2.722,-4.77235 10.575,-9.86795 16.6395,-10.79691 15.4255,-2.36287 31.9097,-5.61392 32.7559,-6.46021 1.3771,-1.37708 1.1831,-11.91018 -0.2512,-13.63839 -2.2791,-2.74613 -10.8913,-4.78252 -18.0575,-4.26978 -8.8448,0.63284 -12.973,3.00227 -14.9164,8.5614 L 1187.5617,203 h -6.7809 c -6.3669,0 -6.7805,-0.13733 -6.7752,-2.25 0.02,-8.05144 6.2671,-16.35367 14.9944,-19.92711 4.6822,-1.91712 7.3587,-2.25502 18,-2.27241 11.9167,-0.0195 12.8077,0.12431 19.0941,3.08113 5.9033,2.77668 6.8722,3.65983 9.25,8.43132 2.6548,5.32745 2.6559,5.34023 2.6559,29.55163 0,13.32202 0.2731,24.93367 0.607,25.80365 0.4097,1.06756 1.8726,1.58179 4.5,1.58179 H 1247 v 4.93873 4.93872 l -4.4933,0.67382 c -4.5834,0.68732 -10.6644,-0.0301 -13.6079,-1.60545 -0.901,-0.48217 -2.4121,-2.50776 -3.3581,-4.50132 -1.7125,-3.60873 -1.7295,-3.61635 -3.8804,-1.73397 -5.5542,4.86092 -12.215,7.28417 -21.3015,7.74959 -4.8723,0.24956 -10.7944,0.0426 -13.1601,-0.4598 z m 25.4975,-12.64388 c 8.599,-4.35068 9.7246,-6.12575 10.3038,-16.249 l 0.5,-8.73847 -2.5,0.38848 c -1.375,0.21366 -8.575,1.52745 -16,2.91955 -11.9925,2.24844 -13.8629,2.87638 -16.75,5.62321 -2.7854,2.65006 -3.25,3.778 -3.25,7.88968 0,4.47647 0.2778,4.99877 4.15,7.80384 3.6836,2.66838 4.9465,3.00627 11.2357,3.00627 5.6763,0 8.1248,-0.5258 12.3105,-2.64356 z M 788.23783,217.75 788.5,180.5 h 7 7 l 0.26217,37.25 0.26217,37.25 H 795.5 787.97566 Z M 863,203 v -52 h 38.54772 38.54771 l -0.29771,6.25 L 939.5,163.5 908.75,163.76445 878,164.0289 V 180.01445 196 h 27.04772 27.04771 l -0.29771,6.25 -0.29772,6.25 -26.75,0.26633 -26.75,0.26634 V 232.01633 255 h -7.5 -7.5 z m 91,14.45431 v -37.54569 l 6.75,0.29569 6.75,0.29569 0.26217,37.25 0.26217,37.25 H 961.01217 954 Z M 1064,217.5 V 180 h 6.5 6.5 v 37.5 37.5 h -6.5 -6.5 z M 788,159 v -8.08762 l 7.25,0.29381 7.25,0.29381 v 7.5 7.5 l -7.25,0.29381 -7.25,0.29381 z m 166,0.0457 V 151 h 7.04206 7.04207 l -0.29207,7.75 -0.29206,7.75 -6.75,0.29569 -6.75,0.29569 z M 1064,159 v -8 h 6.5 6.5 v 8 8 h -6.5 -6.5 z M 837,91.5 V 38 h 7 7 v 4.868077 4.868077 l 3.59735,-3.392739 c 4.96287,-4.680591 8.0146,-6.074601 15.47666,-7.069649 10.29162,-1.372363 20.42694,0.463359 26.46314,4.793034 10.27596,7.37079 15.48133,19.267426 15.44807,35.305865 -0.0377,18.171514 -6.72899,30.288805 -20.48522,37.096715 -5.28718,2.6166 -7.06923,2.97301 -15,3 -7.98126,0.0272 -9.62256,-0.29258 -14.5,-2.82464 -3.025,-1.5704 -6.7375,-4.01709 -8.25,-5.43709 L 851,106.62582 V 125.81291 145 h -7 -7 z m 44.40524,12.38352 c 7.33088,-2.40656 10.89242,-6.029734 14.13884,-14.38352 2.4841,-6.392169 2.47752,-17.987165 -0.0142,-25 -2.32846,-6.553389 -5.60709,-10.383019 -11.77168,-13.75 -7.09109,-3.873022 -12.69918,-3.731421 -19.80245,0.5 -4.65993,2.775921 -5.96631,4.267635 -8.95576,10.226297 -3.19569,6.369731 -3.4969,7.717404 -3.4643,15.5 0.062,14.793142 6.3861,24.417313 18.45783,28.089363 3.8193,1.16178 4.4802,1.09332 11.41171,-1.18214 z m 58.27463,13.08065 c -6.21416,-1.56497 -12.36861,-5.7788 -15.62872,-10.70066 C 921.45221,102.33982 921,100.7144 921,95.296437 c 0,-14.351018 6.22105,-19.648048 27.86047,-23.722325 4.59826,-0.865762 10.44826,-1.583995 13,-1.596074 2.55174,-0.01208 6.55203,-0.890078 8.88953,-1.951108 L 975,66.097784 V 60.06308 c 0,-5.97656 -0.0403,-6.061335 -4.18086,-8.798892 C 967.01193,48.747039 965.81362,48.5 957.41085,48.5 c -8.83137,0 -9.39199,0.133235 -13.06158,3.104133 -2.10878,1.707273 -4.24015,4.519773 -4.73637,6.25 C 938.71191,60.995707 938.70114,61 931.72367,61 h -6.98701 l 0.53752,-4.007489 c 0.8637,-6.439383 3.91521,-11.170512 9.8698,-15.302383 5.34485,-3.708776 5.78175,-3.825234 16.46486,-4.388817 21.90924,-1.15581 31.18784,1.837835 36.14116,11.660579 2.15599,4.275464 2.25,5.516101 2.25,29.693296 0,24.939804 0.0257,25.249394 2.22251,26.788114 1.22237,0.85618 3.47237,1.5567 5,1.5567 2.61971,0 2.77749,0.25228 2.77749,4.44098 0,2.44254 -0.48056,4.73799 -1.06791,5.10099 -0.58734,0.363 -3.62484,0.86772 -6.75,1.1216 -7.11779,0.57823 -11.79184,-1.61796 -14.74763,-6.92948 -2.02879,-3.6457 -2.15013,-3.70575 -3.80113,-1.88142 -0.93799,1.03647 -4.83763,3.32821 -8.66587,5.09276 -7.67429,3.53731 -18.22654,4.797 -25.28759,3.01874 z m 23.63475,-13.13188 c 2.85196,-1.19224 6.53538,-3.55474 8.18538,-5.249999 2.78581,-2.862224 3.0357,-3.735848 3.5,-12.236108 0.46619,-8.534819 0.3801,-9.089484 -1.2731,-8.202453 -0.97521,0.523251 -5.70021,1.384465 -10.5,1.91381 -9.52602,1.050576 -20.47733,3.98725 -23.89772,6.408347 -2.62625,1.858973 -3.72323,6.242263 -2.85231,11.397185 0.54257,3.211478 1.31226,4.161108 4.83422,5.964398 5.71718,2.92728 15.00783,2.92932 22.00353,0.005 z m 114.26948,12.74974 c -2.1538,-0.80324 -4.9663,-2.68279 -6.25,-4.17677 L 1069,109.68892 V 79.394365 49.099808 L 1063.25,48.799904 1057.5,48.5 v -5 -5 l 5.75,-0.299904 5.75,-0.299904 V 27.950096 18 h 7 7 v 9.95431 9.95431 l 6.75,0.29569 6.75,0.29569 v 5 5 l -6.75,0.29569 -6.75,0.29569 v 27.25431 c 0,19.864463 0.3254,27.57968 1.2,28.45431 0.66,0.66 3.81,1.2 7,1.2 h 5.8 v 4.94098 c 0,2.71754 -0.4493,5.21867 -0.9984,5.55805 -2.3458,1.44975 -14.6047,1.50499 -18.4175,0.083 z m 218.17,0.39783 c -6.6951,-1.69242 -15.4063,-6.77733 -19.374,-11.30904 -2.134,-2.43748 -5.0051,-7.298064 -6.3801,-10.8013 -2.1573,-5.496438 -2.4979,-7.945846 -2.4848,-17.86952 0.014,-10.405026 0.283,-12.109973 2.8284,-17.906261 3.7822,-8.612643 7.894,-13.480701 15.1197,-17.900917 L 1291.5,37.5 h 14 c 13.4024,0 14.1957,0.115032 18.5836,2.694662 10.677,6.276832 16.4943,16.418131 17.5274,30.555338 l 0.676,9.25 H 1312.1435 1282 l 0.01,4.25 c 0.01,4.460897 3.9452,12.618031 7.7313,16.02533 3.3639,3.02731 13.2672,5.99039 17.9054,5.35732 8.2519,-1.1263 15.2038,-5.846098 17.5024,-11.88265 1.0121,-2.658016 1.2947,-2.75 8.4493,-2.75 4.8253,0 7.4022,0.392432 7.4022,1.127285 0,2.78925 -6.5835,13.692285 -10.1074,16.739165 -8.0602,6.96895 -24.578,10.78289 -35.1385,8.11341 z M 1327,67.649223 c 0,-14.177263 -18.1646,-24.178585 -31.5455,-17.3687 -6.0247,3.066173 -8.6953,5.818752 -11.3705,11.719477 -3.8377,8.465188 -5.0249,8 20.416,8 h 22.5 z m 127.8402,48.955727 c -2.0129,-0.71899 -4.8254,-2.56495 -6.25,-4.10213 L 1446,109.70795 V 79.403881 49.099808 l -5.75,-0.299904 -5.75,-0.299904 -0.3023,-5.25 -0.3022,-5.25 6.0522,0 6.0523,0 V 28 18 h 7 7 v 10 10 h 6.5 6.5 v 5.5 5.5 h -6.5 -6.5 v 27.3 c 0,19.9 0.3253,27.62527 1.2,28.5 0.66,0.66 3.585,1.2 6.5,1.2 h 5.3 v 5.36916 5.36916 l -3.75,0.61983 c -5.6799,0.93883 -10.3573,0.69434 -14.4098,-0.7532 z M 1510,117.26604 c -5.3073,-0.97995 -14.6665,-5.65892 -18.2668,-9.13215 -2.0717,-1.99864 -5.21,-6.33389 -6.9741,-9.63389 -3.1262,-5.848385 -3.2129,-6.353769 -3.4311,-20 -0.1679,-10.508856 0.1609,-15.101761 1.3186,-18.418222 2.8554,-8.179997 8.4677,-14.837774 16.3534,-19.399876 5.4708,-3.164986 5.5744,-3.181827 19.5,-3.16784 12.1512,0.0122 14.4458,0.276322 17.3759,2 1.8567,1.092266 4.3538,2.529665 5.5491,3.19422 3.4505,1.918414 8.5351,8.874947 11.4019,15.599441 2.3578,5.530629 2.6417,7.474483 2.6565,18.192277 0.014,10.453271 -0.3056,12.823684 -2.4834,18.390393 -6.4765,16.554957 -24.2982,25.828737 -43,22.375647 z m 19.3614,-15.01218 c 4.3429,-2.327444 5.6418,-3.745653 8.3886,-9.159018 3.0148,-5.941668 3.246,-7.099462 3.1941,-16 -0.039,-6.734906 -0.5795,-10.885117 -1.8127,-13.923606 -5.5044,-13.561999 -18.9223,-18.957572 -30.8896,-12.421236 -6.5604,3.583139 -9.5213,7.374384 -11.571,14.815604 -2.0824,7.559853 -2.1205,14.280443 -0.1247,21.974297 2.6001,10.023643 7.5872,15.256039 16.9539,17.787859 3.7818,1.02222 10.7313,-0.32457 15.8614,-3.0739 z M 695,61.590006 V 9 l 24.41203,0 c 27.16986,0 35.99051,1.099689 44.49682,5.547517 9.87637,5.164217 19.22774,18.536483 21.99891,31.457993 0.63098,2.942142 0.95063,11.066826 0.741,18.834319 -0.3344,12.390756 -0.64441,14.331102 -3.33606,20.880059 -4.932,11.999844 -10.89824,18.437662 -22.31212,24.075682 L 753.50116,113.5 724.25058,113.84001 695,114.18001 Z M 752,99.07648 C 759.17771,95.94717 763.45951,91.875463 767.32863,84.5 l 3.14755,-6 0.001,-17 C 770.4789,44.756311 770.4359,44.417076 767.62588,39 763.88236,31.78337 758.31606,26.655698 751.23864,23.904092 746.32231,21.992688 743.02819,21.608515 728.25,21.223067 L 711,20.773149 v 40.694408 40.694413 l 17.75,-0.34381 c 16.10437,-0.31194 18.25991,-0.56612 23.25,-2.74168 z M 803,75.95619 V 37.912381 l 7.25,0.293809 7.25,0.29381 0.26203,37.75 0.26202,37.75 H 810.51203 803 Z M 1012,76 V 38 h 6 6 v 6.555381 6.555381 l 5.25,-5.704373 C 1035.4057,38.717894 1038.9243,37 1046.4679,37 H 1052 v 6.361111 6.361112 l -5.8224,0.527956 c -3.2023,0.290375 -7.5898,1.429991 -9.75,2.532479 C 1027.1132,57.53642 1026,61.620098 1026,91.034947 V 114 h -7 -7 z m 98,0 V 38 h 6.5 6.5 v 38 38 h -6.5 -6.5 z m 33,-0.04569 V 37.90862 l 6.75,0.29569 6.75,0.29569 0.5,4.5 c 0.3858,3.472132 0.7284,4.145126 1.5,2.946366 0.55,-0.854499 3.1171,-3.053638 5.7047,-4.886976 4.3289,-3.067091 5.4471,-3.371509 14,-3.811179 11.862,-0.609781 16.7274,0.683881 21.8544,5.810878 l 3.9536,3.953594 5.4353,-4.42709 c 6.2849,-5.119193 11.4241,-6.222853 24.7298,-5.310862 9.2059,0.630988 13.3599,3.070958 17.0814,10.033201 2.1624,4.04542 2.2514,5.285265 2.5434,35.442068 l 0.3027,31.25 H 1246.5526 1239 V 84.882353 55.764706 l -3.8824,-3.882353 C 1231.4082,48.172918 1230.9472,48 1224.7677,48 c -5.5254,0 -7.0415,0.415683 -10.4066,2.853356 -7.921,5.737969 -7.8233,5.308578 -8.1699,35.896644 L 1205.8824,114 H 1198.4412 1191 V 84.882353 55.764706 l -3.8824,-3.882353 C 1183.4082,48.172918 1182.9472,48 1176.7677,48 c -5.552,0 -7.0353,0.411195 -10.477,2.904383 -2.2052,1.597411 -4.9727,4.463026 -6.15,6.368034 C 1158.0934,60.584935 1158,61.89813 1158,87.368034 V 114 h -7.5 -7.5 z M 1356,76 V 38 h 6.5 6.5 v 6.034796 6.034796 l 2.9596,-3.370797 c 1.6278,-1.853939 4.8518,-4.682098 7.1645,-6.284797 4.1004,-2.841569 4.5177,-2.913998 16.7904,-2.913998 14.3838,0 16.5711,0.744525 22.4851,7.653776 L 1422,49.359997 V 81.679999 114 h -6.5 -6.5 V 87.122124 c 0,-29.913406 -0.363,-32.008979 -6.3329,-36.562452 C 1399.7857,48.361882 1398.2946,48 1392.1204,48 c -9.7394,0 -15.322,3.449245 -19.3785,11.973041 -1.9881,4.177483 -2.1831,6.437631 -2.5251,29.276959 l -0.3707,24.75 h -6.923 H 1356 Z M 803,16.95619 V 8.9123809 L 810.25,9.2061904 817.5,9.5 l 0.29206,7.75 0.29207,7.75 H 810.54206 803 Z M 1109,17 V 9 h 7 7 v 8 8 h -7 -7 z"
       id="path1" />
  </g>
</svg>
