<?xml version="1.0" encoding="UTF-8" standalone="no"?>
<svg
   viewBox="0 0 512 512"
   version="1.1"
   id="svg1"
   sodipodi:docname="file-no-pdf-solid-salmon.svg"
   inkscape:version="1.3.2 (1:1.3.2+202311252150+091e20ef0f)"
   xmlns:inkscape="http://www.inkscape.org/namespaces/inkscape"
   xmlns:sodipodi="http://sodipodi.sourceforge.net/DTD/sodipodi-0.dtd"
   xmlns="http://www.w3.org/2000/svg"
   xmlns:svg="http://www.w3.org/2000/svg">
  <defs
     id="defs1" />
  <sodipodi:namedview
     id="namedview1"
     pagecolor="#ffffff"
     bordercolor="#999999"
     borderopacity="1"
     inkscape:showpageshadow="2"
     inkscape:pageopacity="0"
     inkscape:pagecheckerboard="0"
     inkscape:deskcolor="#d1d1d1"
     inkscape:zoom="0.62305586"
     inkscape:cx="202.22906"
     inkscape:cy="109.94199"
     inkscape:window-width="1920"
     inkscape:window-height="1043"
     inkscape:window-x="0"
     inkscape:window-y="0"
     inkscape:window-maximized="1"
     inkscape:current-layer="svg1" />
  <!--!Font Awesome Free 6.6.0 by @fontawesome - https://fontawesome.com License - https://fontawesome.com/license/free Copyright 2024 Fonticons, Inc.-->
  <path
     id="path1"
     d="M 64,0 C 58.652324,0 53.48548,0.73216655 48.517578,1.9726562 L 350.54492,304 H 384 V 160 H 256 c -17.69998,0 -32,-14.30002 -32,-32 V 0 Z M 256,0 V 128 H 384 Z M 1.9726562,48.517578 C 0.73216655,53.48548 0,58.652324 0,64 v 384 c 0,35.29996 28.700035,64 64,64 h 48 V 368 c 0,-35.29996 28.70004,-64 64,-64 h 81.45508 z M 176,352 c -8.79999,0 -16,7.20001 -16,16 v 80 48 c 0,8.79999 7.20001,16 16,16 8.79999,0 16,-7.20001 16,-16 v -32 h 16 c 30.89997,0 56,-25.10003 56,-56 0,-30.89997 -25.10003,-56 -56,-56 z m 128,0 c -8.79999,0 -16,7.20001 -16,16 v 128 c 0,8.79999 7.20001,16 16,16 h 32 c 26.49997,0 48,-21.50003 48,-48 V 430.54492 L 351.83594,398.38086 C 351.89161,398.92078 352,399.446 352,400 v 64 c 0,8.79999 -7.20001,16 -16,16 h -16 v -96 h 16 c 0.554,0 1.07922,0.10839 1.61914,0.16406 L 305.45508,352 Z m 128,0 c -8.79999,0 -16,7.20001 -16,16 v 1.45508 l 32,32 V 384 h 32 c 8.79999,0 16,-7.20001 16,-16 0,-8.79999 -7.20001,-16 -16,-16 z m -240,32 h 16 c 13.29999,0 24,10.70001 24,24 0,13.29999 -10.70001,24 -24,24 h -16 z m 270.54492,32 27.95899,27.95898 C 493.84271,441.02106 496,436.76979 496,432 c 0,-8.79999 -7.20001,-16 -16,-16 z M 416,462.54492 V 496 c 0,8.79999 7.20001,16 16,16 8.79999,0 16,-7.20001 16,-16 v -1.45508 z"
     sodipodi:nodetypes="sccccsscscccccssscssccsscssscssssssssssccsssccsccssscccsssscsssccccssccssscc"
     style="fill:#ef8376;fill-opacity:1" />
</svg>
